; NON-PLATED HOLES START AT T1
; THROUGH (PLATED) HOLES START AT T100
M48
INCH
T100C0.035000
T101C0.027559
T102C0.036076
T103C0.039370
T104C0.040000
T105C0.038000
%
T100
X008727Y007891
X014727Y001891
X008727Y009891
X008727Y003891
X010727Y001891
X012727Y009891
T101
X010727Y005891
X023227Y001891
X010727Y006891
X023227Y000891
T102
X007716Y006895
X007716Y005895
X007716Y000898
X000723Y002897
X007716Y001897
X007716Y004896
X000723Y006895
X000723Y004896
X000723Y003896
X007716Y003896
X007716Y007895
X000723Y007895
X000723Y000898
X007716Y002897
X000723Y005895
X000723Y001897
T103
X018908Y008695
X019908Y008695
T104
X017908Y003695
X018908Y003695
X014909Y009695
X016909Y003695
X013908Y006195
X013908Y007195
X015909Y009695
X021908Y009695
X016909Y009695
X023908Y009695
X024908Y009695
X025908Y009695
X019908Y003695
X019908Y009695
X023908Y003695
X025908Y003695
X013908Y008195
X014909Y003695
X013908Y004195
X013908Y009195
X020908Y003695
X022908Y003695
X024908Y003695
X015909Y003695
X018908Y009695
X021908Y003695
X020908Y009695
X022908Y009695
X017908Y009695
X013908Y005195
T105
X011318Y011978
X019727Y000891
X012318Y011978
X018227Y011891
X018727Y000891
X020727Y000891
X020227Y011891
X019227Y011891
T00
M30
