G04 MADE WITH FRITZING*
G04 WWW.FRITZING.ORG*
G04 DOUBLE SIDED*
G04 HOLES PLATED*
G04 CONTOUR ON CENTER OF CONTOUR VECTOR*
%ASAXBY*%
%FSLAX23Y23*%
%MOIN*%
%OFA0B0*%
%SFA1.0B1.0*%
%ADD10C,0.075000*%
%ADD11C,0.087701*%
%ADD12C,0.080000*%
%ADD13C,0.085000*%
%ADD14C,0.088000*%
%ADD15R,0.001000X0.001000*%
%LNMASK1*%
G90*
G70*
G54D10*
X2323Y89D03*
X2323Y189D03*
X2323Y89D03*
X2323Y189D03*
X1073Y689D03*
X1073Y589D03*
X1073Y689D03*
X1073Y589D03*
G54D11*
X772Y90D03*
X772Y190D03*
X772Y290D03*
X772Y390D03*
X772Y490D03*
X772Y590D03*
X772Y690D03*
X772Y790D03*
X72Y90D03*
X72Y190D03*
X72Y290D03*
X72Y390D03*
X72Y490D03*
X72Y590D03*
X72Y690D03*
X72Y790D03*
G54D12*
X1591Y370D03*
X2391Y370D03*
X2191Y970D03*
X1991Y370D03*
X2591Y970D03*
X1791Y970D03*
X2591Y370D03*
X2191Y370D03*
X1791Y370D03*
X1991Y870D03*
X2391Y970D03*
X1991Y970D03*
X1591Y970D03*
X1391Y920D03*
X1391Y820D03*
X1391Y720D03*
X1391Y620D03*
X1391Y520D03*
X1391Y420D03*
X2491Y370D03*
X2291Y370D03*
X2091Y370D03*
X1891Y370D03*
X1691Y370D03*
X1491Y370D03*
X1891Y870D03*
X2491Y970D03*
X2291Y970D03*
X2091Y970D03*
X1891Y970D03*
X1691Y970D03*
X1491Y970D03*
G54D13*
X873Y989D03*
X1273Y989D03*
X1073Y189D03*
X1473Y189D03*
X873Y789D03*
X873Y389D03*
G54D14*
X2023Y1189D03*
X1923Y1189D03*
X1823Y1189D03*
X1132Y1198D03*
X1232Y1198D03*
X1873Y89D03*
X1973Y89D03*
X2073Y89D03*
G54D15*
X1035Y627D02*
X1109Y627D01*
X1035Y626D02*
X1109Y626D01*
X1035Y625D02*
X1109Y625D01*
X1035Y624D02*
X1109Y624D01*
X1035Y623D02*
X1109Y623D01*
X1035Y622D02*
X1109Y622D01*
X1035Y621D02*
X1109Y621D01*
X1035Y620D02*
X1109Y620D01*
X1035Y619D02*
X1109Y619D01*
X1035Y618D02*
X1109Y618D01*
X1035Y617D02*
X1109Y617D01*
X1035Y616D02*
X1109Y616D01*
X1035Y615D02*
X1109Y615D01*
X1035Y614D02*
X1109Y614D01*
X1035Y613D02*
X1109Y613D01*
X1035Y612D02*
X1109Y612D01*
X1035Y611D02*
X1109Y611D01*
X1035Y610D02*
X1109Y610D01*
X1035Y609D02*
X1109Y609D01*
X1035Y608D02*
X1109Y608D01*
X1035Y607D02*
X1109Y607D01*
X1035Y606D02*
X1109Y606D01*
X1035Y605D02*
X1109Y605D01*
X1035Y604D02*
X1109Y604D01*
X1035Y603D02*
X1109Y603D01*
X1035Y602D02*
X1109Y602D01*
X1035Y601D02*
X1109Y601D01*
X1035Y600D02*
X1109Y600D01*
X1035Y599D02*
X1070Y599D01*
X1075Y599D02*
X1109Y599D01*
X1035Y598D02*
X1067Y598D01*
X1077Y598D02*
X1109Y598D01*
X1035Y597D02*
X1066Y597D01*
X1079Y597D02*
X1109Y597D01*
X1035Y596D02*
X1065Y596D01*
X1079Y596D02*
X1109Y596D01*
X1035Y595D02*
X1064Y595D01*
X1080Y595D02*
X1109Y595D01*
X1035Y594D02*
X1064Y594D01*
X1081Y594D02*
X1109Y594D01*
X1035Y593D02*
X1063Y593D01*
X1081Y593D02*
X1109Y593D01*
X1035Y592D02*
X1063Y592D01*
X1081Y592D02*
X1109Y592D01*
X1035Y591D02*
X1063Y591D01*
X1082Y591D02*
X1109Y591D01*
X1035Y590D02*
X1063Y590D01*
X1082Y590D02*
X1109Y590D01*
X1035Y589D02*
X1063Y589D01*
X1081Y589D02*
X1109Y589D01*
X1035Y588D02*
X1063Y588D01*
X1081Y588D02*
X1109Y588D01*
X1035Y587D02*
X1064Y587D01*
X1081Y587D02*
X1109Y587D01*
X1035Y586D02*
X1064Y586D01*
X1080Y586D02*
X1109Y586D01*
X1035Y585D02*
X1065Y585D01*
X1080Y585D02*
X1109Y585D01*
X1035Y584D02*
X1066Y584D01*
X1079Y584D02*
X1109Y584D01*
X1035Y583D02*
X1067Y583D01*
X1078Y583D02*
X1109Y583D01*
X1035Y582D02*
X1069Y582D01*
X1075Y582D02*
X1109Y582D01*
X1035Y581D02*
X1109Y581D01*
X1035Y580D02*
X1109Y580D01*
X1035Y579D02*
X1109Y579D01*
X1035Y578D02*
X1109Y578D01*
X1035Y577D02*
X1109Y577D01*
X1035Y576D02*
X1109Y576D01*
X1035Y575D02*
X1109Y575D01*
X1035Y574D02*
X1109Y574D01*
X1035Y573D02*
X1109Y573D01*
X1035Y572D02*
X1109Y572D01*
X1035Y571D02*
X1109Y571D01*
X1035Y570D02*
X1109Y570D01*
X1035Y569D02*
X1109Y569D01*
X1035Y568D02*
X1109Y568D01*
X1035Y567D02*
X1109Y567D01*
X1035Y566D02*
X1109Y566D01*
X1035Y565D02*
X1109Y565D01*
X1035Y564D02*
X1109Y564D01*
X1035Y563D02*
X1109Y563D01*
X1035Y562D02*
X1109Y562D01*
X1035Y561D02*
X1109Y561D01*
X1035Y560D02*
X1109Y560D01*
X1035Y559D02*
X1109Y559D01*
X1035Y558D02*
X1109Y558D01*
X1035Y557D02*
X1109Y557D01*
X1035Y556D02*
X1109Y556D01*
X1035Y555D02*
X1109Y555D01*
X1035Y554D02*
X1109Y554D01*
X1036Y553D02*
X1109Y553D01*
X2285Y228D02*
X2359Y228D01*
X2285Y227D02*
X2359Y227D01*
X2285Y226D02*
X2359Y226D01*
X2285Y225D02*
X2359Y225D01*
X2285Y224D02*
X2359Y224D01*
X2285Y223D02*
X2359Y223D01*
X2285Y222D02*
X2359Y222D01*
X2285Y221D02*
X2359Y221D01*
X2285Y220D02*
X2359Y220D01*
X2285Y219D02*
X2359Y219D01*
X2285Y218D02*
X2359Y218D01*
X2285Y217D02*
X2359Y217D01*
X2285Y216D02*
X2359Y216D01*
X2285Y215D02*
X2359Y215D01*
X2285Y214D02*
X2359Y214D01*
X2285Y213D02*
X2359Y213D01*
X2285Y212D02*
X2359Y212D01*
X2285Y211D02*
X2359Y211D01*
X2285Y210D02*
X2359Y210D01*
X2285Y209D02*
X2359Y209D01*
X2285Y208D02*
X2359Y208D01*
X2285Y207D02*
X2359Y207D01*
X2285Y206D02*
X2359Y206D01*
X2285Y205D02*
X2359Y205D01*
X2285Y204D02*
X2359Y204D01*
X2285Y203D02*
X2359Y203D01*
X2285Y202D02*
X2359Y202D01*
X2285Y201D02*
X2359Y201D01*
X2285Y200D02*
X2359Y200D01*
X2285Y199D02*
X2319Y199D01*
X2325Y199D02*
X2359Y199D01*
X2285Y198D02*
X2317Y198D01*
X2328Y198D02*
X2359Y198D01*
X2285Y197D02*
X2316Y197D01*
X2329Y197D02*
X2359Y197D01*
X2285Y196D02*
X2315Y196D01*
X2330Y196D02*
X2359Y196D01*
X2285Y195D02*
X2314Y195D01*
X2330Y195D02*
X2359Y195D01*
X2285Y194D02*
X2314Y194D01*
X2331Y194D02*
X2359Y194D01*
X2285Y193D02*
X2313Y193D01*
X2331Y193D02*
X2359Y193D01*
X2285Y192D02*
X2313Y192D01*
X2331Y192D02*
X2359Y192D01*
X2285Y191D02*
X2313Y191D01*
X2332Y191D02*
X2359Y191D01*
X2285Y190D02*
X2313Y190D01*
X2332Y190D02*
X2359Y190D01*
X2285Y189D02*
X2313Y189D01*
X2331Y189D02*
X2359Y189D01*
X2285Y188D02*
X2313Y188D01*
X2331Y188D02*
X2359Y188D01*
X2285Y187D02*
X2314Y187D01*
X2331Y187D02*
X2359Y187D01*
X2285Y186D02*
X2314Y186D01*
X2330Y186D02*
X2359Y186D01*
X2285Y185D02*
X2315Y185D01*
X2329Y185D02*
X2359Y185D01*
X2285Y184D02*
X2316Y184D01*
X2329Y184D02*
X2359Y184D01*
X2285Y183D02*
X2317Y183D01*
X2327Y183D02*
X2359Y183D01*
X2285Y182D02*
X2320Y182D01*
X2324Y182D02*
X2359Y182D01*
X2285Y181D02*
X2359Y181D01*
X2285Y180D02*
X2359Y180D01*
X2285Y179D02*
X2359Y179D01*
X2285Y178D02*
X2359Y178D01*
X2285Y177D02*
X2359Y177D01*
X2285Y176D02*
X2359Y176D01*
X2285Y175D02*
X2359Y175D01*
X2285Y174D02*
X2359Y174D01*
X2285Y173D02*
X2359Y173D01*
X2285Y172D02*
X2359Y172D01*
X2285Y171D02*
X2359Y171D01*
X2285Y170D02*
X2359Y170D01*
X2285Y169D02*
X2359Y169D01*
X2285Y168D02*
X2359Y168D01*
X2285Y167D02*
X2359Y167D01*
X2285Y166D02*
X2359Y166D01*
X2285Y165D02*
X2359Y165D01*
X2285Y164D02*
X2359Y164D01*
X2285Y163D02*
X2359Y163D01*
X2285Y162D02*
X2359Y162D01*
X2285Y161D02*
X2359Y161D01*
X2285Y160D02*
X2359Y160D01*
X2285Y159D02*
X2359Y159D01*
X2285Y158D02*
X2359Y158D01*
X2285Y157D02*
X2359Y157D01*
X2285Y156D02*
X2359Y156D01*
X2285Y155D02*
X2359Y155D01*
X2285Y154D02*
X2359Y154D01*
D02*
G04 End of Mask1*
M02*